# xmcd
#
# Track frame offsets:
#	150
#	16750
#	34260
#	50430
#	68855
#	87400
#	109325
#	129422
#	142990
#	161377
#	183187
#	195105
#	213282
#	236607
#	255112
#
# Disc length: 3613 seconds
#
# Revision: 4
# Processed by: cddbd v1.5.2PL0 Copyright (c) Steve Scherf et al.
# Submitted via: EasyCDDAExtractor 16.0.6.1
#
DISCID=ba0e1b0f
DTITLE=Partido na Cozinha - Canto à Liberdade
DYEAR=2014
DGENRE=
TTITLE0=Partido na Cozinha - Olha o samba, olha o povo
TTITLE1=Partido na Cozinha part. Almir Guineto - Seguindo teus passos 
TTITLE2=Partido na Cozinha - Quem tem fé
TTITLE3=Partido na Cozinha - Estrela
TTITLE4=Partido na Cozinha part. Germano Mathias e Osvaldinho da Cuíca - Histó
TTITLE4=ria da capoeira
TTITLE5=Partido na Cozinha - Batendo saudade
TTITLE6=Partido na Cozinha - Canto à liberdade
TTITLE7=Partido na Cozinha part. Thobias da Vai-vai - Pout-pourri
TTITLE8=Partido na Cozinha - Meu senhor me guia
TTITLE9=Partido na Cozinha part. Jannu Bastos - Obra do criador
TTITLE10=Partido na Cozinha - Longe de casa eu choro
TTITLE11=Partido na Cozinha - Ele é caô
TTITLE12=Partido na Cozinha - Ouça amor
TTITLE13=Partido na Cozinha part. Velha Guarda do Vai-Vai, Velha Guarda do Cam
TTITLE13=isa Verde e Branco, Monarco, Noca da Portela e Tantinho da Mangueira 
TTITLE13=/ Força da união
TTITLE14=Partido na Cozinha - Timidez
EXTD=
EXTT0=
EXTT1=
EXTT2=
EXTT3=
EXTT4=
EXTT5=
EXTT6=
EXTT7=
EXTT8=
EXTT9=
EXTT10=
EXTT11=
EXTT12=
EXTT13=
EXTT14=
PLAYORDER=
